PathFileType  4	(X/Y/Z) C:\Users\antoi\Documents\MyRepositories\mobilecap\ResultsAnalysis
DataRate	CameraRate	NumFrames	NumMarkers	Units	OrigDataRate	OrigDataStartFrame	OrigNumFrames
100.0	100.0	4	51	mm	100.0	80	158
Frame#	Time	r_knee			r_shank_antsup			r_ankle			r_calc			r_5meta			r_toe			L_knee			L_shank_antsup			L_ankle			L_calc			L_5meta			L_toe			r_sh2			r_sh3			r_sh4			L_sh2			L_sh3			r_thigh1			r_thigh2			r_thigh3			r_thigh4			r_thigh5			L_thigh1			L_thigh2			L_thigh3			L_thigh4			r.ASIS			r.PSIS			L.ASIS			L.PSIS			C7			R_Shoulder			L_Shoulder			R_Sternum			L_Sternum			R_humerus			R_elbow_med			R_elbow_lat			R_forearm			R_wrist_radius			R_wrist_ulna			L_humerus			L_elbow_med			L_elbow_lat			L_forearm			L_wrist_radius			L_wrist_ulna			R_HJC			L_HJC			R_HJC_reg			L_HJC_reg			
		X1	Y1	Z1	X2	Y2	Z2	X3	Y3	Z3	X4	Y4	Z4	X5	Y5	Z5	X6	Y6	Z6	X7	Y7	Z7	X8	Y8	Z8	X9	Y9	Z9	X10	Y10	Z10	X11	Y11	Z11	X12	Y12	Z12	X13	Y13	Z13	X14	Y14	Z14	X15	Y15	Z15	X16	Y16	Z16	X17	Y17	Z17	X18	Y18	Z18	X19	Y19	Z19	X20	Y20	Z20	X21	Y21	Z21	X22	Y22	Z22	X23	Y23	Z23	X24	Y24	Z24	X25	Y25	Z25	X26	Y26	Z26	X27	Y27	Z27	X28	Y28	Z28	X29	Y29	Z29	X30	Y30	Z30	X31	Y31	Z31	X32	Y32	Z32	X33	Y33	Z33	X34	Y34	Z34	X35	Y35	Z35	X36	Y36	Z36	X37	Y37	Z37	X38	Y38	Z38	X39	Y39	Z39	X40	Y40	Z40	X41	Y41	Z41	X42	Y42	Z42	X43	Y43	Z43	X44	Y44	Z44	X45	Y45	Z45	X46	Y46	Z46	X47	Y47	Z47	X48	Y48	Z48	X49	Y49	Z49	X50	Y50	Z50	X51	Y51	Z51	

80	0.79000000	736.08480	571.26083	-56.17423	657.84742	435.68983	-70.87636	350.55759	241.73059	-91.58469	302.29414	288.07637	-150.28925	365.50042	91.12199	-87.90407	411.74157	81.97971	-138.48876	873.36186	601.33928	-337.13617	935.61581	406.14730	-296.75387	866.43756	103.56212	-289.56100	807.13420	71.32482	-224.02269	1009.63706	37.16679	-319.87625	1048.77428	70.51734	-261.53774	574.28092	361.95392	-82.53432	613.73487	479.14872	-27.61173	527.23557	407.59643	-30.55215	875.58382	407.39592	-359.84638	869.82454	292.11511	-338.85644	777.53619	859.96695	-21.25620	794.87591	750.37346	-23.13969	734.59917	719.00873	-21.43101	667.04011	846.82094	-49.33264	682.77578	731.34765	-46.06322	859.77545	899.25886	-371.08390	887.34840	767.58074	-353.11183	751.47066	878.48688	-375.86455	784.39145	743.88725	-371.69889	819.54792	1155.76134	-65.58688	628.36132	1178.15738	-144.78092	802.56216	1155.73534	-343.81565	622.02687	1180.51224	-237.95921	661.69662	1670.19197	-215.99177	738.05614	1631.35714	-42.28526	721.47747	1637.00222	-394.83008	807.40978	1589.62087	-189.42199	807.71606	1589.88444	-246.73195	706.91304	1362.96322	33.40575	610.54714	1255.16185	-1.34025	622.07565	1277.90875	67.12008	714.87719	1083.63399	95.61039	748.35150	992.95560	93.60816	718.49394	991.43048	118.41189	721.14970	1339.47265	-443.33240	635.25586	1265.60192	-384.12846	649.21716	1260.29380	-460.78318	729.57802	1071.20444	-490.85188	759.34223	995.40356	-484.06174	731.84803	996.38912	-506.16025	745.15284	1056.94415	-102.04709	726.97997	1060.91568	-298.62531	752.96191	1065.20550	-103.49460	740.49364	1069.84588	-286.98539	
81	0.80000000	759.70451	572.74412	-56.04078	680.29595	438.31569	-70.26513	369.43683	250.33691	-89.31931	322.73866	298.92718	-147.72031	378.14337	99.16254	-86.12538	424.40138	87.89510	-136.25817	878.49532	601.32764	-336.95456	938.69589	405.48872	-296.61811	866.71106	103.79168	-289.16710	807.19086	71.48218	-223.84034	1009.66139	37.28531	-319.80397	1048.99140	70.08060	-261.20111	595.19636	366.01897	-81.48966	637.19374	482.46027	-26.56882	549.21196	412.60174	-29.18607	878.17262	407.27339	-359.25786	871.49261	292.09983	-338.16223	794.07170	861.53112	-21.39074	814.01756	752.42204	-23.41126	754.40247	719.72578	-21.54480	683.84232	846.02610	-49.18258	702.75685	730.24089	-46.68751	868.82005	899.53165	-370.84925	894.77650	767.50844	-352.86486	760.37658	880.04491	-376.33022	791.80180	745.26924	-372.05153	828.87353	1157.51970	-65.14973	638.28823	1179.65085	-146.33105	813.79911	1157.24610	-343.66634	632.59340	1182.34367	-239.47984	672.43331	1671.92115	-217.28400	748.50272	1633.47729	-43.38908	732.79863	1638.34027	-395.84065	818.03568	1591.31184	-190.15335	818.46483	1591.42295	-247.46121	716.70908	1365.15219	32.48978	619.84543	1257.94132	-2.43095	631.43869	1280.52151	66.00868	722.18524	1085.38434	94.66704	754.55035	994.12404	92.73187	724.86324	993.17095	117.51548	732.55391	1340.82408	-444.09417	646.44832	1266.97599	-385.24405	660.71413	1261.60586	-461.80196	741.87178	1072.75000	-491.36551	771.70755	996.99662	-484.25962	744.52749	997.92822	-506.58826	754.61512	1058.64585	-102.38339	738.04696	1062.50238	-299.10956	762.83405	1066.22276	-103.89841	751.61081	1071.53553	-287.56889	
82	0.81000000	782.96353	574.76949	-55.83985	702.73235	441.29080	-69.70363	388.83839	258.28987	-87.27089	343.30256	308.29357	-145.60237	393.24328	106.88428	-84.07183	439.55610	94.04491	-133.79813	883.32913	601.32397	-336.74212	941.51405	404.87657	-296.48287	866.91954	104.04865	-288.80097	807.21813	71.69838	-223.69661	1009.67732	37.39407	-319.72063	1049.19696	69.71213	-260.90142	616.29790	370.20817	-80.48790	660.55862	486.02527	-25.61880	571.27233	417.60422	-27.93521	880.55142	407.14191	-358.69331	872.97597	292.09263	-337.47312	810.49981	863.54751	-21.50773	832.91609	754.93725	-23.62457	773.93336	720.95750	-21.60973	700.58284	845.68969	-49.01508	722.36031	729.85959	-47.07830	877.57700	899.82885	-370.29608	902.02478	767.52293	-352.40227	769.15683	881.58422	-376.83476	799.11448	746.64220	-372.49553	838.24634	1159.27065	-64.85309	648.14323	1181.19191	-147.84338	824.84434	1158.74070	-343.59736	643.00795	1184.18888	-240.95187	683.09480	1673.65972	-218.51638	758.62969	1635.47583	-44.32038	744.12356	1639.63381	-396.76980	828.52433	1592.97548	-190.72269	829.14607	1592.94679	-248.03831	726.20158	1367.18327	31.74441	628.87891	1260.50828	-3.29573	640.60651	1282.91517	65.09379	729.61580	1087.03602	93.81084	760.97336	995.27024	91.86584	731.51973	994.82044	116.68154	743.81617	1342.14303	-444.91433	657.41173	1268.31570	-386.50712	672.09257	1262.89725	-462.94357	754.17138	1074.30615	-491.86834	784.16724	998.65228	-484.43961	757.31283	999.48312	-507.00648	764.04499	1060.35989	-102.77042	748.91643	1064.08896	-299.62305	772.67669	1067.30499	-104.33968	762.54319	1073.22353	-288.14893	
83	0.82000000	805.79720	577.29801	-55.56661	725.09151	444.59751	-69.16935	408.71808	265.51809	-85.44429	363.82187	316.01283	-143.92129	411.00332	114.09730	-81.67729	457.41881	100.23609	-131.08166	887.94767	601.32736	-336.52529	944.16094	404.32464	-296.23823	867.10553	104.32198	-288.47922	807.23161	71.96411	-223.59708	1009.69000	37.49567	-319.63683	1049.39182	69.39383	-260.63450	637.54860	374.48906	-79.54324	683.71077	489.83033	-24.79195	593.31934	422.56098	-26.81296	882.99684	407.00725	-358.21773	874.51811	292.08511	-336.88005	826.75162	866.02218	-21.62248	851.51024	757.92267	-23.79210	793.17132	722.68418	-21.61853	717.18877	845.78832	-48.82222	741.55964	730.18955	-47.20982	886.09936	900.12600	-369.54713	909.08548	767.57343	-351.80033	777.81369	883.07530	-377.34558	806.27388	747.94943	-372.97225	847.69887	1161.05444	-64.75835	657.95897	1182.80568	-149.19961	835.66580	1160.22934	-343.66739	653.29167	1186.04632	-242.28329	693.68591	1675.40449	-219.69402	768.45427	1637.37009	-45.09649	755.42084	1640.90874	-397.62488	838.88177	1594.61635	-191.15761	839.77094	1594.46979	-248.48259	735.39252	1369.07504	31.13736	637.67481	1262.87664	-3.98422	649.58756	1285.11257	64.33466	737.19611	1088.60168	93.04271	767.65950	996.42801	91.01498	738.45610	996.37968	115.91447	754.97046	1343.45103	-445.77510	668.20126	1269.63651	-387.89304	683.38682	1264.18446	-464.19040	766.46570	1075.87721	-492.35047	796.70127	1000.37502	-484.60426	770.15737	1001.05958	-507.41144	773.51310	1062.11461	-103.18996	759.55539	1065.68617	-300.14026	782.49735	1068.51118	-104.84471	773.27777	1074.91449	-288.75409	
